#N canvas 603 477 474 263 10;
#X obj 72 48 loadbang;
#X msg 71 78 \; pd dsp 1;
#X msg 69 127 \; pd dsp 0;
#N canvas 4 49 1249 691 new 1;
#X obj 600 350 osc~;
#X obj 600 380 dac~;
#X obj 600 50 nmb;
#X text 600 30 python;
#X obj 692 64 nmb;
#X text 692 44 watchdog/0;
#X obj 776 107 nmb;
#X text 776 87 python;
#X obj 842 173 nmb;
#X text 842 153 Xorg;
#X obj 885 257 nmb;
#X text 885 237 watchdog/1;
#X obj 900 350 nmb;
#X text 900 330 compiz.real;
#X obj 885 442 nmb;
#X text 885 422 update-notifier;
#X obj 842 526 nmb;
#X text 842 506 cairo-dock;
#X obj 776 592 nmb;
#X text 776 572 Xorg;
#X obj 692 635 nmb;
#X text 692 615 update-notifier;
#X obj 600 650 nmb;
#X text 600 630 Xorg;
#X obj 507 635 nmb;
#X text 507 615 gtk-window-deco;
#X obj 423 592 nmb;
#X text 423 572 x-session-manag;
#X obj 357 526 nmb;
#X text 357 506 compiz.real;
#X obj 314 442 nmb;
#X text 314 422 cairo-dock;
#X obj 300 350 nmb;
#X text 300 330 watchdog/0;
#X obj 314 257 nmb;
#X text 314 237 pd;
#X obj 357 173 nmb;
#X text 357 153 pd;
#X obj 423 107 nmb;
#X text 423 87 wpa_supplicant;
#X obj 507 64 nmb;
#X text 507 44 pd;
#X connect 0 0 1 0;
#X connect 4 0 0 0;
#X restore 201 32 pd new;
#X obj 252 179 netsend;
#X obj 271 132 r pyata;
#X msg 194 148 disconnect;
#X obj 424 103 bng 15 250 50 0 empty empty empty 17 7 0 10 -262144
-1 -1;
#X obj 265 32 netreceive 3000 0 old;
#X obj 252 64 loadbang;
#X msg 252 110 connect localhost 3001;
#X obj 252 86 del 6000;
#X floatatom 252 201 5 0 0 0 - - -;
#X obj 173 99 print a;
#X msg 271 155 send \$1 \$2;
#X connect 0 0 1 0;
#X connect 4 0 12 0;
#X connect 5 0 14 0;
#X connect 6 0 4 0;
#X connect 9 0 11 0;
#X connect 9 0 6 0;
#X connect 9 0 13 0;
#X connect 10 0 4 0;
#X connect 11 0 7 0;
#X connect 11 0 10 0;
#X connect 14 0 4 0;
